<?xml version="1.0" encoding="UTF-8"?>
<!DOCTYPE svg PUBLIC "-//W3C//DTD SVG 1.1//EN" "http://www.w3.org/Graphics/SVG/1.1/DTD/svg11.dtd">
<!-- Creator: CorelDRAW X6 -->
<svg xmlns="http://www.w3.org/2000/svg" xml:space="preserve" width="100%" height="100%" version="1.1" style="shape-rendering:geometricPrecision; text-rendering:geometricPrecision; image-rendering:optimizeQuality; fill-rule:evenodd; clip-rule:evenodd"
viewBox="0 0 66040 65698"
 xmlns:xlink="http://www.w3.org/1999/xlink">
 <defs>
  <style type="text/css">
   <![CDATA[
    .fil0 {fill:#CFD0D2}
   ]]>
  </style>
 </defs>
  <path class="fil0" d="M36407 0c9604,979 17989,6073 23366,13492l-3690 2131c-4613,-6165 -11638,-10418 -19676,-11361l0 -4262zm26758 19355c1847,4120 2875,8687 2875,13494 0,4807 -1028,9374 -2875,13494l-3691 -2131c1500,-3486 2332,-7328 2332,-11363 0,-4035 -832,-7877 -2332,-11363l3691 -2131zm-3392 32851c-5377,7419 -13762,12513 -23366,13492l0 -4262c8038,-943 15063,-5196 19676,-11361l3690 2131zm-30140 13492c-9604,-979 -17989,-6073 -23366,-13492l3690 -2131c4612,6165 11638,10419 19676,11361l0 4262zm-26758 -19355c-1847,-4120 -2875,-8687 -2875,-13494 0,-4807 1028,-9374 2875,-13494l3691 2131c-1499,3486 -2332,7327 -2332,11363 0,4036 833,7877 2332,11363l-3691 2131zm3392 -32851c5377,-7419 13762,-12513 23366,-13492l0 4262c-8038,942 -15064,5196 -19676,11361l-3690 -2131z"/>
</svg>